<svg xmlns="http://www.w3.org/2000/svg"
 xmlns:xlink="http://www.w3.org/1999/xlink" width="225" height="225">
<style>
.squareOuter {stroke:#098131;fill:rgba(255, 0, 0, 0);stroke-width:8}
.squareInner { fill:#098131} 
.lines{stroke:#098131;stroke-width:7}
.circleInner{ fill:#098131}
.circleOuter{stroke:#098131;fill:rgba(255, 251, 0, 0);stroke-width:10}
 @keyframes svg_move{0%{stroke-dashoffset: 0}100%{stroke-dashoffset: 537}}
</style>
   <pattern id="pattern-cubes" x="0" y="126"
       patternUnits="userSpaceOnUse" width="10" height="10"
        viewBox="0 0 50 50"> 
     
     <g id="cube" stroke="green" stroke-width="1" stroke-opacity="0.3">
       <path class="left-shade" d="M0 0 l50 50" x="0" y="0" />
     </g>
  	   
   </pattern>
   
   <!-- The canvas for our pattern -->
   <rect x="0" y="0" width="100%"  height="100%" fill="url(#pattern-cubes)" />

       <rect x="42" y="64" width="90" rx="20" ry="20" height="90" class="squareOuter" />

        <g>
            <!-- <line x1="110" x2="110" y1="165" y2="185" stroke-linecap="round"  class="lines" /> -->

            <line x1="85" x2="85" y1="165" y2="185" stroke-linecap="round" class="lines" />

            <line x1="60" x2="60" y1="165" y2="185" stroke-linecap="round"  class="lines"/>

        </g>

        <g>
            <line x1="145" x2="165" y1="85" y2="85"   stroke-linecap="round" class="lines" />

           <line x1="145" x2="165" y1="110" y2="110" stroke-linecap="round" class="lines" />

             <!-- <line x1="145" x2="165" y1="135" y2="135" stroke-linecap="round"  class="lines"/> -->
        </g>

 <rect x="62" y="85" width="50" rx="15" ry="15" stroke-width="1" height="50" class="squareInner" />

     <g >
        <circle cx="151" cy="160" stroke-dasharray="14" r="55" fill="rgba(252,250,250,0.918)"/>
        <circle cx="151" cy="160" stroke-dasharray="14" r="45" style="animation: svg_move 30s linear infinite" class="circleOuter"/>
        <circle cx="151" cy="160" r="40" class="circleInner"  />
      </g>

    <g>
      <line x1="10" x2="30" y1="85" y2="85" stroke-linecap="round" class="lines" />

        <line x1="10" x2="30" y1="110" y2="110" stroke-linecap="round" class="lines" />

        <line x1="10" x2="30" y1="135" y2="135" stroke-linecap="round" class="lines" />
    </g>

    <g >
        <line x1="110" x2="110" y1="30" y2="50" stroke-linecap="round"  class="lines"  />
        <line x1="85" x2="85" y1="30" y2="50" stroke-linecap="round"  class="lines" />
        <line x1="60" x2="60" y1="30" y2="50" stroke-linecap="round" class="lines" />
    </g>

    <path d="M125 142 l27 40 l26 -41" stroke-width="14" fill="rgba(3,99,54,0)" stroke="#18f147"/>
    <path d="M133 139 l19 30 l18 -30" stroke-width="12" fill="#18f147" stroke="#21073f"/>

    <line x1="120" x2="183" y1="140" y2="140" stroke-width="10" stroke="#098131" />
    <line x1="118" x2="151" y1="146" y2="195" stroke-width="2" stroke="#21073f" />

</svg>