<svg xmlns="http://www.w3.org/2000/svg" width="500" height="300">
    <path d="M 241.1 38.8 S 347.1 96.8 347.1 96.8 S 346.1 96.8 346.1 96.8 S 346.1 96.8 346.1 96.8 S 346.1 96.8 346.1 96.8 S 347.1 198.8 347.1 198.8 S 347.1 198.8 347.1 198.8 S 246.1 251.8 246.1 251.8 S 246.1 251.8 246.1 251.8 S 141.1 195.8 141.1 195.8 S 141.1 195.8 141.1 195.8 S 139.1 93.8 139.1 93.8 S 139.1 93.8 243.1 40.8" fill="#03300f"/>
    <path d="M 249.3 43.7 S 355.4 101.7 355.4 101.7 S 354.4 101.7 354.4 101.7 S 354.4 101.7 354.4 101.7 S 354.4 101.7 354.4 101.7 S 355.4 203.7 355.4 203.7 S 355.4 203.7 355.4 203.7 S 254.3 256.7 254.3 256.7 S 254.3 256.7 254.3 256.7 S 149.3 200.7 149.3 200.7 S 149.3 200.7 149.3 200.7 S 147.3 98.7 147.3 98.7 S 147.3 98.7 251.3 45.7" fill="#1d9e3f"/>
   
</svg>